<?xml version="1.0" encoding="utf-8"?>
<!-- Generator: Adobe Illustrator 26.4.1, SVG Export Plug-In . SVG Version: 6.00 Build 0)  -->
<svg version="1.1" id="Слой_1" xmlns="http://www.w3.org/2000/svg" xmlns:xlink="http://www.w3.org/1999/xlink" x="0px" y="0px"
	 viewBox="0 0 202 21.2" style="enable-background:new 0 0 202 21.2;" xml:space="preserve">
<style type="text/css">
	.st0{fill-rule:evenodd;clip-rule:evenodd;fill:#FFFFFF;}
	.st1{fill:none;stroke:#FFFFFF;stroke-width:1.6154;stroke-linecap:round;stroke-linejoin:round;}
	.st2{clip-path:url(#SVGID_00000119815770990998640120000017569219643446921629_);}
	.st3{fill:#FFFFFF;}
	.st4{fill:#121212;}
</style>
<g>
	<path class="st0" d="M9.7,8.1c0-3.4,2.7-6.1,6.1-6.1s6.1,2.7,6.1,6.1c0,3.4-2.7,6.1-6.1,6.1S9.7,11.4,9.7,8.1z M15.8,0.4
		c-4.2,0-7.7,3.4-7.7,7.7c0,4.2,3.4,7.7,7.7,7.7c1.8,0,3.5-0.6,4.8-1.7l5.4,5.4c0.3,0.3,0.8,0.3,1.1,0c0.3-0.3,0.3-0.8,0-1.1
		l-5.4-5.4c1.1-1.3,1.7-3,1.7-4.8C23.5,3.8,20,0.4,15.8,0.4z"/>
	<path class="st0" d="M61.7,5.5c0-2.1,1.7-3.9,3.9-3.9c2.1,0,3.9,1.7,3.9,3.9c0,2.1-1.7,3.9-3.9,3.9C63.4,9.3,61.7,7.6,61.7,5.5z
		 M65.5,0c-3,0-5.5,2.5-5.5,5.5c0,3,2.5,5.5,5.5,5.5c3,0,5.5-2.5,5.5-5.5C71,2.5,68.5,0,65.5,0z M60.5,15.5c0.7-0.7,1.7-1.1,2.7-1.1
		h4.7c1,0,2,0.4,2.7,1.1c0.7,0.7,1.1,1.7,1.1,2.7v2.3c0,0.4,0.4,0.8,0.8,0.8c0.4,0,0.8-0.4,0.8-0.8v-2.3c0-1.5-0.6-2.8-1.6-3.9
		c-1-1-2.4-1.6-3.9-1.6h-4.7c-1.5,0-2.8,0.6-3.9,1.6c-1,1-1.6,2.4-1.6,3.9v2.3c0,0.4,0.4,0.8,0.8,0.8c0.4,0,0.8-0.4,0.8-0.8v-2.3
		C59.3,17.2,59.7,16.2,60.5,15.5z"/>
	<path class="st1" d="M122,11.2l-8,7.7l-8-7.7 M106,11.2c-0.5-0.5-0.9-1.1-1.2-1.8c-0.3-0.7-0.4-1.4-0.4-2.1c0-0.7,0.2-1.4,0.5-2.1
		c0.3-0.6,0.8-1.2,1.3-1.7c0.6-0.5,1.2-0.8,1.9-1c0.7-0.2,1.4-0.3,2.2-0.2c0.7,0.1,1.4,0.3,2.1,0.7c0.6,0.4,1.2,0.8,1.6,1.4
		c0.4-0.6,1-1,1.6-1.4c0.6-0.4,1.3-0.6,2.1-0.6c0.7-0.1,1.5,0,2.2,0.2c0.7,0.2,1.3,0.6,1.9,1c0.6,0.5,1,1,1.3,1.7
		c0.3,0.6,0.5,1.3,0.5,2.1c0,0.7-0.1,1.4-0.4,2.1c-0.3,0.7-0.7,1.3-1.2,1.8"/>
	<path class="st0" d="M159.3,3.1c0-0.2,0.1-0.5,0.4-0.9c0.3-0.3,1-0.7,2.3-0.7s1.9,0.3,2.3,0.7c0.4,0.3,0.4,0.7,0.4,0.9h1.6
		c0-0.6-0.3-1.4-1-2.1C164.6,0.4,163.6,0,162,0s-2.6,0.4-3.3,1.1c-0.7,0.6-1,1.4-1,2.1H159.3z M159.3,3.1V5h5.4V3.1h1.6V5h2.8
		c0.4,0,0.8,0.4,0.8,0.8v11c0,0.6-0.3,1.2-0.7,1.7c-0.4,0.4-1.1,0.7-1.7,0.7h-11.1c-0.6,0-1.2-0.2-1.7-0.7c-0.5-0.4-0.7-1.1-0.7-1.7
		v-11c0-0.4,0.4-0.8,0.8-0.8h2.9V3.1H159.3z M157.7,9V6.6h-2.1v10.2c0,0.2,0.1,0.4,0.2,0.5c0.1,0.1,0.3,0.2,0.6,0.2h11.1
		c0.2,0,0.4-0.1,0.6-0.2c0.1-0.1,0.2-0.3,0.2-0.5V6.6h-2V9h-1.6V6.6h-5.4V9H157.7z"/>
	<g>
		<defs>
			<rect id="SVGID_1_" x="178" y="0.1" width="20" height="20"/>
		</defs>
		<clipPath id="SVGID_00000115480370381500928800000005164145066938273192_">
			<use xlink:href="#SVGID_1_"  style="overflow:visible;"/>
		</clipPath>
		<g style="clip-path:url(#SVGID_00000115480370381500928800000005164145066938273192_);">
			<circle class="st3" cx="188" cy="10.1" r="10"/>
			<path class="st4" d="M184.9,14.1v-1.3l3.1-2.9c0.3-0.3,0.5-0.5,0.7-0.7c0.2-0.2,0.3-0.4,0.4-0.6c0.1-0.2,0.1-0.4,0.1-0.6
				c0-0.3-0.1-0.5-0.2-0.7c-0.1-0.2-0.3-0.3-0.5-0.4c-0.2-0.1-0.4-0.2-0.7-0.2c-0.3,0-0.5,0.1-0.7,0.2c-0.2,0.1-0.4,0.3-0.5,0.5
				s-0.2,0.4-0.2,0.7h-1.8c0-0.6,0.1-1.1,0.4-1.5c0.3-0.4,0.6-0.7,1.1-1s1-0.3,1.6-0.3c0.6,0,1.2,0.1,1.6,0.3
				c0.5,0.2,0.8,0.5,1.1,0.9c0.3,0.4,0.4,0.8,0.4,1.3c0,0.3-0.1,0.7-0.2,1c-0.1,0.3-0.4,0.7-0.7,1.1c-0.3,0.4-0.8,0.9-1.4,1.4
				l-1.3,1.2v0.1h3.7v1.5H184.9z"/>
		</g>
	</g>
</g>
</svg>
