<svg width="154" height="32" viewBox="0 0 154 32" fill="none" xmlns="http://www.w3.org/2000/svg">
<path fill-rule="evenodd" clip-rule="evenodd" d="M13.3895 9.54262L14.0441 8.97236L15.1514 8.00784V1.53479C15.1514 0.687244 14.3624 0 13.3895 0C12.4166 0 11.6276 0.687244 11.6276 1.53479V8.00784L12.7349 8.97236L13.3895 9.54262ZM13.3895 17.4946L12.7349 18.0649L11.6276 19.0294V25.5025C11.6276 26.35 12.4166 27.0373 13.3895 27.0373C14.3624 27.0373 15.1514 26.35 15.1514 25.5025V19.0294L14.0441 18.0649L13.3895 17.4946ZM18.9736 11.6631H25.4273C26.2723 11.6631 26.9574 12.4544 26.9574 13.4302C26.9574 14.4061 26.2723 15.1974 25.4273 15.1974H18.9736L18.0116 14.0868L17.4434 13.4302L18.0116 12.7736L18.9736 11.6631ZM9.51404 13.4303L8.94549 12.7737L7.98385 11.6632H1.53019C0.685185 11.6632 0 12.4545 0 13.4303C0 14.4062 0.685185 15.1975 1.53019 15.1975H7.98385L8.94549 14.0869L9.51404 13.4303ZM10.5074 14.314L12.6851 16.4982L12.1129 17.072L6.15202 23.0508C5.85123 23.3525 5.45737 23.5032 5.06317 23.5032C4.86607 23.5032 4.66931 23.4654 4.48385 23.3899C4.29838 23.3147 4.12489 23.2015 3.97433 23.0508C3.3731 22.4478 3.3731 21.4696 3.97433 20.8666L9.93525 14.8878L10.5074 14.314ZM14.2712 10.5392L16.4489 12.7234L17.021 12.1495L22.9819 6.17074C23.5831 5.56772 23.5831 4.5899 22.9819 3.98653C22.8314 3.83586 22.6579 3.7226 22.4724 3.64744C22.2873 3.57193 22.0902 3.53418 21.8931 3.53418C21.4989 3.53418 21.105 3.68485 20.8042 3.98653L14.8433 9.96531L14.2712 10.5392ZM13.1267 11.0191L15.2668 13.1656L16.78 14.6834L22.6379 20.5589C23.2291 21.1519 23.2291 22.1128 22.6379 22.7054C22.3426 23.0019 21.9553 23.15 21.5679 23.15C21.1808 23.15 20.7934 23.0019 20.4978 22.7054L14.64 16.8299L13.1267 15.3121L10.9867 13.1656L9.47348 11.6478L3.61561 5.7722C3.02445 5.17925 3.02445 4.21831 3.61561 3.6257C3.68926 3.5515 3.76895 3.48674 3.85302 3.43108C4.02082 3.32012 4.20577 3.24591 4.39644 3.20881C4.49194 3.19026 4.58879 3.18115 4.68563 3.18115C5.07268 3.18115 5.46007 3.32922 5.75565 3.6257L11.6135 9.50126L13.1267 11.0191Z" fill="white"/>
<path d="M33 3.03741H37.1951L50.085 18.6363V3.03741H54.2801V23.9694H50.085V23.7538L37.1951 7.57736V23.9694H33V3.03741Z" fill="white"/>
<path fill-rule="evenodd" clip-rule="evenodd" d="M57.1676 16.9114C56.8411 17.5364 56.6779 18.2283 56.6779 18.9872C56.6779 19.7372 56.8345 20.4313 57.1477 21.0697C57.4609 21.708 57.9263 22.2638 58.5439 22.737C59.1615 23.2102 59.9313 23.5807 60.8532 23.8486C61.7752 24.1164 62.8449 24.2503 64.0624 24.2503C64.7859 24.2503 65.4718 24.2034 66.1203 24.1097C66.7688 24.016 67.3753 23.8887 67.94 23.728C68.5046 23.5673 69.0274 23.3798 69.5082 23.1656C69.989 22.9513 70.4324 22.7236 70.8382 22.4826V23.9691H74.7554V17.0855C74.7554 13.9696 74.0452 11.6572 72.6248 10.1483C71.2043 8.6395 69.034 7.88507 66.1137 7.88507C65.452 7.88507 64.7682 7.92078 64.0624 7.99221C63.3566 8.06363 62.6508 8.16407 61.945 8.29353C61.2392 8.42299 60.5488 8.577 59.8739 8.75556C59.199 8.93413 58.566 9.13054 57.9748 9.34482L59.1659 12.5991C59.6423 12.3759 60.1562 12.184 60.7076 12.0233C61.2591 11.8625 61.8171 11.7286 62.3817 11.6215C62.9464 11.5144 63.4934 11.434 64.0227 11.3804C64.5521 11.3269 65.0373 11.3001 65.4785 11.3001C66.2901 11.3001 67.0158 11.3849 67.6554 11.5545C68.2951 11.7242 68.8421 11.963 69.2964 12.271C69.7508 12.579 70.1059 12.9451 70.3618 13.3692C70.6176 13.7933 70.7676 14.2553 70.8117 14.7553C69.6824 14.4606 68.5862 14.2419 67.5231 14.099C66.46 13.9562 65.4476 13.8848 64.4859 13.8848C63.189 13.8848 62.0531 14.0075 61.0782 14.2531C60.1033 14.4986 59.2894 14.8468 58.6365 15.2976C57.9837 15.7485 57.494 16.2864 57.1676 16.9114ZM61.0046 19.5966C60.8723 19.3601 60.8061 19.1123 60.8061 18.8534C60.8061 18.6123 60.8679 18.3802 60.9914 18.157C61.1149 17.9338 61.3267 17.7396 61.6266 17.5744C61.9266 17.4093 62.3192 17.2776 62.8044 17.1794C63.2897 17.0811 63.8984 17.032 64.6307 17.032C64.9836 17.032 65.3961 17.0454 65.8681 17.0722C66.3401 17.099 66.843 17.1459 67.3767 17.2128C67.9105 17.2798 68.4708 17.3713 69.0575 17.4874C69.6442 17.6034 70.2375 17.7463 70.8374 17.9159V18.6123C70.5374 18.898 70.1625 19.1748 69.7125 19.4426C69.2626 19.7105 68.7597 19.9471 68.2039 20.1524C67.648 20.3578 67.0481 20.5229 66.4041 20.6479C65.76 20.7729 65.0939 20.8354 64.4057 20.8354C63.7617 20.8354 63.2125 20.7796 62.7581 20.668C62.3038 20.5564 61.931 20.4091 61.6399 20.2261C61.3487 20.0431 61.137 19.8332 61.0046 19.5966Z" fill="white"/>
<path d="M78.8263 25.9511C79.2321 26.219 79.6732 26.4556 80.1497 26.6609C80.6261 26.8663 81.1223 27.0359 81.6385 27.1698C82.1546 27.3038 82.6817 27.4042 83.2199 27.4712C83.7581 27.5381 84.2919 27.5716 84.8212 27.5716C86.621 27.5716 88.0084 27.181 88.9833 26.3998C89.9582 25.6186 90.4456 24.4468 90.4456 22.8843V22.3486C90.1015 22.5897 89.7156 22.8107 89.2877 23.0116C88.8598 23.2124 88.401 23.3843 87.9113 23.5272C87.4217 23.67 86.9056 23.7794 86.363 23.8553C85.8204 23.9312 85.2712 23.9691 84.7154 23.9691C83.5243 23.9691 82.459 23.7928 81.5194 23.4401C80.5798 23.0874 79.7857 22.5696 79.1373 21.8866C78.4888 21.2036 77.9925 20.3621 77.6484 19.3622C77.3044 18.3622 77.1323 17.2194 77.1323 15.9338V8.16632H81.0363V14.8356C81.0363 16.7462 81.3958 18.1547 82.1149 19.0609C82.8339 19.9671 83.9698 20.4202 85.5226 20.4202C86.6166 20.4202 87.5849 20.226 88.4275 19.8376C89.27 19.4492 89.9427 18.9515 90.4456 18.3444V8.16632H94.3629V22.1612C94.3629 23.67 94.1511 24.9802 93.7276 26.0918C93.3042 27.2033 92.6888 28.1251 91.8815 28.8572C91.0742 29.5893 90.0839 30.1362 88.9105 30.4978C87.7371 30.8594 86.4049 31.0402 84.9139 31.0402C83.4581 31.0402 82.0994 30.8839 80.8378 30.5714C79.5762 30.259 78.4204 29.8349 77.3705 29.2992L78.8263 25.9511Z" fill="white"/>
<path d="M105.494 11.4608H97.4874V8.16632H112.759L103.125 20.6746H112.23V23.9691H95.9258L105.494 11.4608Z" fill="white"/>
<path fill-rule="evenodd" clip-rule="evenodd" d="M115.05 16.9114C114.724 17.5364 114.56 18.2283 114.56 18.9872C114.56 19.7372 114.717 20.4313 115.03 21.0697C115.343 21.708 115.809 22.2638 116.426 22.737C117.044 23.2102 117.814 23.5807 118.736 23.8486C119.658 24.1164 120.727 24.2503 121.945 24.2503C122.668 24.2503 123.354 24.2034 124.003 24.1097C124.651 24.016 125.258 23.8887 125.822 23.728C126.387 23.5673 126.91 23.3798 127.391 23.1656C127.871 22.9513 128.315 22.7236 128.721 22.4826V23.9691H132.638V17.0855C132.638 13.9696 131.928 11.6572 130.507 10.1483C129.087 8.6395 126.916 7.88507 123.996 7.88507C123.334 7.88507 122.651 7.92078 121.945 7.99221C121.239 8.06363 120.533 8.16407 119.827 8.29353C119.122 8.42299 118.431 8.577 117.756 8.75556C117.081 8.93413 116.448 9.13054 115.857 9.34482L117.048 12.5991C117.525 12.3759 118.039 12.184 118.59 12.0233C119.141 11.8625 119.699 11.7286 120.264 11.6215C120.829 11.5144 121.376 11.434 121.905 11.3804C122.434 11.3269 122.92 11.3001 123.361 11.3001C124.173 11.3001 124.898 11.3849 125.538 11.5545C126.177 11.7242 126.724 11.963 127.179 12.271C127.633 12.579 127.988 12.9451 128.244 13.3692C128.5 13.7933 128.65 14.2553 128.694 14.7553C127.565 14.4606 126.469 14.2419 125.405 14.099C124.342 13.9562 123.33 13.8848 122.368 13.8848C121.071 13.8848 119.935 14.0075 118.961 14.2531C117.986 14.4986 117.172 14.8468 116.519 15.2976C115.866 15.7485 115.376 16.2864 115.05 16.9114ZM118.887 19.5966C118.755 19.3601 118.689 19.1123 118.689 18.8534C118.689 18.6123 118.75 18.3802 118.874 18.157C118.997 17.9338 119.209 17.7396 119.509 17.5744C119.809 17.4093 120.202 17.2776 120.687 17.1794C121.172 17.0811 121.781 17.032 122.513 17.032C122.866 17.032 123.278 17.0454 123.75 17.0722C124.222 17.099 124.725 17.1459 125.259 17.2128C125.793 17.2798 126.353 17.3713 126.94 17.4874C127.527 17.6034 128.12 17.7463 128.72 17.9159V18.6123C128.42 18.898 128.045 19.1748 127.595 19.4426C127.145 19.7105 126.642 19.9471 126.086 20.1524C125.53 20.3578 124.93 20.5229 124.286 20.6479C123.642 20.7729 122.976 20.8354 122.288 20.8354C121.644 20.8354 121.095 20.7796 120.641 20.668C120.186 20.5564 119.813 20.4091 119.522 20.2261C119.231 20.0431 119.019 19.8332 118.887 19.5966Z" fill="white"/>
<path d="M135.608 3.03741H139.525V14.8761L146.83 8.16662H152.825L144.66 15.5591L153.341 23.9694H147.466L141.656 18.2777L139.525 20.2062V23.9694H135.608V3.03741Z" fill="white"/>
</svg>
