<svg width="156" height="30" viewBox="0 0 156 30" fill="none" xmlns="http://www.w3.org/2000/svg">
<path fill-rule="evenodd" clip-rule="evenodd" d="M13.8895 9.54262L14.5441 8.97236L15.6514 8.00784V1.53479C15.6514 0.687244 14.8624 0 13.8895 0C12.9166 0 12.1276 0.687244 12.1276 1.53479V8.00784L13.2349 8.97236L13.8895 9.54262ZM13.8895 17.4946L13.2349 18.0649L12.1276 19.0294V25.5025C12.1276 26.35 12.9166 27.0373 13.8895 27.0373C14.8624 27.0373 15.6514 26.35 15.6514 25.5025V19.0294L14.5441 18.0649L13.8895 17.4946ZM19.4736 11.6631H25.9273C26.7723 11.6631 27.4574 12.4544 27.4574 13.4302C27.4574 14.4061 26.7723 15.1974 25.9273 15.1974H19.4736L18.5116 14.0868L17.9434 13.4302L18.5116 12.7736L19.4736 11.6631ZM10.014 13.4303L9.44549 12.7737L8.48385 11.6632H2.03019C1.18519 11.6632 0.5 12.4545 0.5 13.4303C0.5 14.4062 1.18519 15.1975 2.03019 15.1975H8.48385L9.44549 14.0869L10.014 13.4303ZM11.0074 14.314L13.1851 16.4982L12.6129 17.072L6.65202 23.0508C6.35123 23.3525 5.95737 23.5032 5.56317 23.5032C5.36607 23.5032 5.16931 23.4654 4.98385 23.3899C4.79838 23.3147 4.62489 23.2015 4.47433 23.0508C3.8731 22.4478 3.8731 21.4696 4.47433 20.8666L10.4353 14.8878L11.0074 14.314ZM14.7712 10.5392L16.9489 12.7234L17.521 12.1495L23.4819 6.17074C24.0831 5.56772 24.0831 4.5899 23.4819 3.98653C23.3314 3.83586 23.1579 3.7226 22.9724 3.64744C22.7873 3.57193 22.5902 3.53418 22.3931 3.53418C21.9989 3.53418 21.605 3.68485 21.3042 3.98653L15.3433 9.96531L14.7712 10.5392ZM13.6267 11.0191L15.7668 13.1656L17.28 14.6834L23.1379 20.5589C23.7291 21.1519 23.7291 22.1128 23.1379 22.7054C22.8426 23.0019 22.4553 23.15 22.0679 23.15C21.6808 23.15 21.2934 23.0019 20.9978 22.7054L15.14 16.8299L13.6267 15.3121L11.4867 13.1656L9.97348 11.6478L4.11561 5.7722C3.52445 5.17925 3.52445 4.21831 4.11561 3.6257C4.18926 3.5515 4.26895 3.48674 4.35302 3.43108C4.52082 3.32012 4.70577 3.24591 4.89644 3.20881C4.99194 3.19026 5.08879 3.18115 5.18563 3.18115C5.57268 3.18115 5.96007 3.32922 6.25565 3.6257L12.1135 9.50126L13.6267 11.0191ZM35.1582 1.99707H39.3533L52.2432 17.596V1.99707H56.4383V22.9291H52.2432V22.7135L39.3533 6.53702V22.9291H35.1582V1.99707ZM58.8361 17.9468C58.8361 17.188 58.9993 16.496 59.3258 15.8711C59.6522 15.2461 60.1419 14.7082 60.7947 14.2573C61.4476 13.8064 62.2615 13.4582 63.2364 13.2127C64.2113 12.9672 65.3472 12.8444 66.6441 12.8444C67.6058 12.8444 68.6182 12.9158 69.6813 13.0587C70.7444 13.2015 71.8406 13.4203 72.9699 13.7149C72.9258 13.2149 72.7758 12.7529 72.52 12.3288C72.2641 11.9047 71.909 11.5387 71.4546 11.2307C71.0003 10.9226 70.4533 10.6838 69.8136 10.5142C69.174 10.3446 68.4483 10.2597 67.6367 10.2597C67.1955 10.2597 66.7103 10.2865 66.1809 10.3401C65.6516 10.3937 65.1046 10.474 64.5399 10.5811C63.9753 10.6883 63.4172 10.8222 62.8658 10.9829C62.3144 11.1436 61.8005 11.3356 61.3241 11.5588L60.133 8.30447C60.7241 8.0902 61.3572 7.89378 62.0321 7.71522C62.707 7.53666 63.3974 7.38265 64.1032 7.25319C64.809 7.12373 65.5148 7.02329 66.2206 6.95186C66.9264 6.88044 67.6102 6.84473 68.2719 6.84473C71.1922 6.84473 73.3625 7.59915 74.783 9.10801C76.2034 10.6169 76.9136 12.9292 76.9136 16.0452V22.9287H72.9964V21.4422C72.5905 21.6833 72.1472 21.9109 71.6664 22.1252C71.1855 22.3395 70.6628 22.527 70.0982 22.6877C69.5335 22.8484 68.927 22.9756 68.2785 23.0694C67.63 23.1631 66.9441 23.21 66.2206 23.21C65.0031 23.21 63.9334 23.0761 63.0114 22.8082C62.0894 22.5404 61.3197 22.1698 60.7021 21.6967C60.0845 21.2235 59.6191 20.6677 59.3059 20.0293C58.9927 19.391 58.8361 18.6968 58.8361 17.9468ZM62.9643 17.813C62.9643 18.072 63.0305 18.3197 63.1628 18.5563C63.2952 18.7929 63.5069 19.0027 63.798 19.1857C64.0892 19.3688 64.4619 19.5161 64.9163 19.6277C65.3707 19.7393 65.9199 19.7951 66.5639 19.7951C67.2521 19.7951 67.9182 19.7326 68.5623 19.6076C69.2063 19.4826 69.8062 19.3174 70.3621 19.1121C70.9179 18.9067 71.4208 18.6701 71.8707 18.4023C72.3207 18.1344 72.6956 17.8577 72.9956 17.572V16.8756C72.3957 16.7059 71.8024 16.5631 71.2157 16.447C70.629 16.331 70.0687 16.2395 69.5349 16.1725C69.0012 16.1055 68.4983 16.0587 68.0263 16.0319C67.5543 16.0051 67.1418 15.9917 66.7889 15.9917C66.0566 15.9917 65.4479 16.0408 64.9626 16.139C64.4774 16.2372 64.0848 16.3689 63.7848 16.5341C63.4848 16.6993 63.2731 16.8934 63.1496 17.1166C63.0261 17.3398 62.9643 17.572 62.9643 17.813ZM80.9845 24.9108C81.3903 25.1786 81.8315 25.4152 82.3079 25.6206C82.7843 25.8259 83.2806 25.9956 83.7967 26.1295C84.3128 26.2634 84.84 26.3638 85.3781 26.4308C85.9163 26.4978 86.4501 26.5312 86.9794 26.5312C88.7793 26.5312 90.1666 26.1406 91.1415 25.3594C92.1164 24.5782 92.6039 23.4064 92.6039 21.844V21.3083C92.2598 21.5494 91.8738 21.7703 91.4459 21.9712C91.018 22.1721 90.5592 22.344 90.0696 22.4868C89.5799 22.6297 89.0638 22.739 88.5212 22.8149C87.9786 22.8908 87.4294 22.9288 86.8736 22.9288C85.6825 22.9288 84.6172 22.7524 83.6776 22.3998C82.738 22.0471 81.9439 21.5293 81.2955 20.8463C80.647 20.1633 80.1507 19.3218 79.8067 18.3218C79.4626 17.3219 79.2905 16.1791 79.2905 14.8934V7.12598H83.1945V13.7953C83.1945 15.7059 83.5541 17.1143 84.2731 18.0205C84.9921 18.9267 86.1281 19.3798 87.6808 19.3798C88.7748 19.3798 89.7431 19.1856 90.5857 18.7973C91.4282 18.4089 92.101 17.9111 92.6039 17.304V7.12598H96.5211V21.1208C96.5211 22.6297 96.3093 23.9399 95.8859 25.0514C95.4624 26.163 94.847 27.0848 94.0397 27.8169C93.2325 28.549 92.2421 29.0959 91.0687 29.4574C89.8953 29.819 88.5631 29.9998 87.0721 29.9998C85.6163 29.9998 84.2577 29.8436 82.996 29.5311C81.7344 29.2186 80.5786 28.7945 79.5288 28.2588L80.9845 24.9108ZM99.6456 10.4205H107.652L98.084 22.9288H114.388V19.6343H105.283L114.918 7.12598H99.6456V10.4205ZM117.208 15.8711C116.882 16.496 116.718 17.188 116.718 17.9468C116.718 18.6968 116.875 19.391 117.188 20.0293C117.502 20.6677 117.967 21.2235 118.584 21.6967C119.202 22.1698 119.972 22.5404 120.894 22.8082C121.816 23.0761 122.885 23.21 124.103 23.21C124.826 23.21 125.512 23.1631 126.161 23.0694C126.809 22.9756 127.416 22.8484 127.981 22.6877C128.545 22.527 129.068 22.3395 129.549 22.1252C130.03 21.9109 130.473 21.6833 130.879 21.4422V22.9287H134.796V16.0452C134.796 12.9292 134.086 10.6169 132.665 9.10801C131.245 7.59915 129.075 6.84473 126.154 6.84473C125.493 6.84473 124.809 6.88044 124.103 6.95186C123.397 7.02329 122.691 7.12373 121.986 7.25319C121.28 7.38265 120.589 7.53666 119.914 7.71522C119.24 7.89378 118.607 8.0902 118.015 8.30447L119.206 11.5588C119.683 11.3356 120.197 11.1436 120.748 10.9829C121.3 10.8222 121.858 10.6883 122.422 10.5811C122.987 10.474 123.534 10.3937 124.063 10.3401C124.593 10.2865 125.078 10.2597 125.519 10.2597C126.331 10.2597 127.056 10.3446 127.696 10.5142C128.336 10.6838 128.883 10.9226 129.337 11.2307C129.791 11.5387 130.146 11.9047 130.402 12.3288C130.658 12.7529 130.808 13.2149 130.852 13.7149C129.723 13.4203 128.627 13.2015 127.564 13.0587C126.501 12.9158 125.488 12.8444 124.526 12.8444C123.23 12.8444 122.094 12.9672 121.119 13.2127C120.144 13.4582 119.33 13.8064 118.677 14.2573C118.024 14.7082 117.535 15.2461 117.208 15.8711ZM121.045 18.5563C120.913 18.3197 120.847 18.072 120.847 17.813C120.847 17.572 120.908 17.3398 121.032 17.1166C121.155 16.8934 121.367 16.6993 121.667 16.5341C121.967 16.3689 122.36 16.2372 122.845 16.139C123.33 16.0408 123.939 15.9917 124.671 15.9917C125.024 15.9917 125.437 16.0051 125.909 16.0319C126.381 16.0587 126.884 16.1055 127.417 16.1725C127.951 16.2395 128.511 16.331 129.098 16.447C129.685 16.5631 130.278 16.7059 130.878 16.8756V17.572C130.578 17.8577 130.203 18.1344 129.753 18.4023C129.303 18.6701 128.8 18.9067 128.244 19.1121C127.689 19.3174 127.089 19.4826 126.445 19.6076C125.801 19.7326 125.134 19.7951 124.446 19.7951C123.802 19.7951 123.253 19.7393 122.799 19.6277C122.344 19.5161 121.972 19.3688 121.68 19.1857C121.389 19.0027 121.178 18.7929 121.045 18.5563ZM141.683 1.99707H137.766V22.9291H141.683V19.1658L143.814 17.2374L149.624 22.9291H155.5L146.818 14.5188L154.984 7.12628H148.989L141.683 13.8358V1.99707Z" fill="#121212"/>
</svg>
